<svg width="16" height="16" viewBox="0 0 16 16" fill="none" xmlns="http://www.w3.org/2000/svg">
<path d="M7.9999 10.6668C7.84413 10.6671 7.69317 10.6128 7.57323 10.5134L3.57323 7.1801C3.43709 7.06694 3.35147 6.90434 3.33522 6.72805C3.31897 6.55177 3.37341 6.37625 3.48657 6.2401C3.59972 6.10396 3.76233 6.01834 3.93862 6.00209C4.1149 5.98584 4.29042 6.04028 4.42657 6.15344L7.9999 9.1401L11.5732 6.2601C11.6414 6.20473 11.7199 6.16337 11.8041 6.13842C11.8883 6.11346 11.9767 6.1054 12.064 6.11469C12.1514 6.12398 12.236 6.15045 12.3131 6.19257C12.3902 6.23468 12.4582 6.29162 12.5132 6.3601C12.5743 6.42865 12.6205 6.50907 12.6491 6.59632C12.6776 6.68357 12.6878 6.77577 12.679 6.86714C12.6703 6.95852 12.6427 7.0471 12.5981 7.12734C12.5535 7.20757 12.4929 7.27774 12.4199 7.33344L8.4199 10.5534C8.29651 10.6371 8.14863 10.677 7.9999 10.6668Z" fill="#A2A8A7"/>
</svg>
